<svg id="Слой_1" data-name="Слой 1" xmlns="http://www.w3.org/2000/svg" viewBox="0 0 500 500"><defs><style>.cls-1{fill:#fff;stroke:#000;}.cls-1,.cls-2{stroke-miterlimit:10;stroke-width:3px;}.cls-2{stroke:#fff;}</style></defs><g id="eraser"><path id="eraser__start" class="cls-1" d="M87.65,299.39H223.57a2.56,2.56,0,0,1,2.56,2.56v57.44a30,30,0,0,1-30,30h-81a30,30,0,0,1-30-30V301.95a2.56,2.56,0,0,1,2.56-2.56Z" transform="translate(289.1 -9.16) rotate(45)"/><path id="eraser__end" class="cls-2" d="M237.27,87.23h87a30,30,0,0,1,30,30V343a8.19,8.19,0,0,1-8.19,8.19H215.46a8.19,8.19,0,0,1-8.19-8.19V117.23a30,30,0,0,1,30-30Z" transform="translate(237.26 -134.32) rotate(45)"/></g></svg>