<svg id="Слой_1" data-name="Слой 1" xmlns="http://www.w3.org/2000/svg" viewBox="0 0 500 500"><defs><style>.cls-1{stroke:#fff;}.cls-1,.cls-2{stroke-miterlimit:10;stroke-width:3px;}.cls-2{fill:#fff;stroke:#000;}</style></defs><g id="lighter"><g id="lighter__body"><path id="lighter__end" class="cls-1" d="M233.64,213.23,350.7,96.17a30,30,0,0,0,0-42.42L322.41,25.46a30,30,0,0,0-42.42,0l-99,99a30,30,0,0,0,0,42.42l46.35,46.35a2,2,0,0,1,0,2.83L110.28,333.12a30,30,0,0,0,0,42.42l99,99a30,30,0,0,0,42.42,0l99-99a30,30,0,0,0,0-42.42L233.64,216.06A2,2,0,0,1,233.64,213.23Z"/><g id="lighter__middle"><path id="lighter__middle1" class="cls-1" d="M296.64,212.58h30.73a30,30,0,0,1,30,30v37.55a0,0,0,0,1,0,0H266.64a0,0,0,0,1,0,0V242.58A30,30,0,0,1,296.64,212.58Z" transform="translate(265.58 -148.47) rotate(45)"/><circle id="lighter__middle2" class="cls-1" cx="351.85" cy="302.5" r="22.47"/></g></g><path id="lighter__start" class="cls-2" d="M395.09,160.1a2.41,2.41,0,0,1,3.22,3.22l-11.21,31-3.47,9.59c-5.26,14.56-20.74,24.44-34.47,22l-.26-.05a19.88,19.88,0,0,1-16.57-16.69h0c-2.33-13.71,7.54-29.08,22-34.33l9.75-3.53Z"/></g></svg>