<svg id="Слой_1" data-name="Слой 1" xmlns="http://www.w3.org/2000/svg" viewBox="0 0 500 500"><defs><style>.cls-1{fill:#fff;stroke:#000;}.cls-1,.cls-2{stroke-miterlimit:10;stroke-width:3px;}.cls-2{stroke:#fff;}</style></defs><g id="pencil"><path id="pencil__middle" class="cls-1" d="M78.77,401.74l19.44,19.44a.11.11,0,0,0,.12,0l56.12-33.32a.1.1,0,0,0,0-.16l-42.24-42.24a.1.1,0,0,0-.16,0L78.75,401.62A.09.09,0,0,0,78.77,401.74Z"/><path id="pencil__end" class="cls-2" d="M387.91,69.62,114.33,343.2a.1.1,0,0,0,0,.14l42.28,42.28a.1.1,0,0,0,.14,0L430.33,112a30,30,0,0,0,0-42.42h0A30,30,0,0,0,387.91,69.62Z"/><path id="pencil__start" class="cls-2" d="M64.68,438.89l31.51-15.54a.1.1,0,0,0,0-.16L76.86,403.84a.1.1,0,0,0-.16,0L61.16,435.37A2.63,2.63,0,0,0,64.68,438.89Z"/></g></svg>