<svg id="Слой_1" data-name="Слой 1" xmlns="http://www.w3.org/2000/svg" viewBox="0 0 500 500"><defs><style>.cls-1{stroke:#fff;}.cls-1,.cls-2{stroke-miterlimit:10;stroke-width:3px;}.cls-2,.cls-3{fill:#fff;}.cls-2{stroke:#000;}</style></defs><g id="logo-2" data-name="logo"><g id="logo__word"><g id="logo__rgb"><path id="logo__r" class="cls-1" d="M146.23,152.14a25.27,25.27,0,0,1-2.75,11.56,32.55,32.55,0,0,1-7.6,9.71,45,45,0,0,1-11.37,7.21,50.43,50.43,0,0,1-14.18,4A122.78,122.78,0,0,0,115,196.4q2.74,6.07,5.94,11.69a108,108,0,0,0,6.65,10.35,53.6,53.6,0,0,0,6.77,7.79,10.84,10.84,0,0,1-1.86,2.55,17.88,17.88,0,0,1-6.13,4.15,8.62,8.62,0,0,1-3.26.71,7.42,7.42,0,0,1-5.36-2.69,30.66,30.66,0,0,1-5.17-8.49,135.82,135.82,0,0,1-5.5-15.07q-2.86-9.27-6.32-22.3H97.94a7.19,7.19,0,0,1-2.17-.25,7.18,7.18,0,0,1-1.92-1.79Q90.4,190.46,87.72,197t-4.79,12.59q-2.12,6.06-3.71,11.75t-2.74,11.56a18,18,0,0,1-7.54-3.7,28.18,28.18,0,0,1-6-7.54c.34-.77.7-1.51,1.08-2.24s.88-1.74,1.47-3.06,1.34-3,2.24-5.05l3.57-8.17q2.24-5.12,5.37-12.52t7.6-18q2-4.72,3.51-8.31c1-2.38,1.86-4.66,2.62-6.83s1.47-4.34,2.11-6.52,1.3-4.66,2-7.47A93,93,0,0,0,83.57,148a40.55,40.55,0,0,0-8.37,5.3,10.71,10.71,0,0,1-2.36-2.3,24,24,0,0,1-2.24-3.39,35,35,0,0,1-1.79-3.77,11.88,11.88,0,0,1-.89-3.45,49.39,49.39,0,0,1,9.39-4.72,101.08,101.08,0,0,1,11.82-3.77,116.66,116.66,0,0,1,12.77-2.49,89,89,0,0,1,12.13-.9q15.33,0,23.77,6.33T146.23,152.14Zm-31.17-10.73a39.72,39.72,0,0,0-2.81,4.6q-1.92,3.45-4.41,8.23t-5.24,10.42q-2.75,5.61-5.3,11.11A81.46,81.46,0,0,0,114.93,174a51.88,51.88,0,0,0,13.92-5,28.15,28.15,0,0,0,9.14-7.67,16.07,16.07,0,0,0,3.25-9.77q0-6.39-4.6-9.77t-14.17-3.39c-1.45,0-2.9.06-4.35.19s-3,.28-4.6.45Z"/><path id="logo__g" class="cls-1" d="M218.4,181.9a6.43,6.43,0,0,1,5.24,2.32,9.85,9.85,0,0,1,1.91,6.44,19.51,19.51,0,0,1-.12,2.12,10,10,0,0,1-.39,1.87,21.79,21.79,0,0,0-5.87-.74,34.88,34.88,0,0,1-4.09,11.72A63,63,0,0,1,207,217.16a62.16,62.16,0,0,1-10.35,9.43A33,33,0,0,1,185.57,232q-17.12,0-25-8.51T152.74,197a69.37,69.37,0,0,1,4.85-25.53,78.71,78.71,0,0,1,12.91-21.95A66.18,66.18,0,0,1,189,134.07a43.76,43.76,0,0,1,21.65-5.82q8.8,0,13.73,3.7t4.92,10.48a17,17,0,0,1-2.11,8.3,34.2,34.2,0,0,1-7,8.3,11.75,11.75,0,0,1-5.11-3.12,9.66,9.66,0,0,1-2.68-5.18,26,26,0,0,0,6.13-5.87,11.28,11.28,0,0,0,1.79-6.39q0-5.88-7-5.88-5.74,0-12.33,4.29a60.32,60.32,0,0,0-13.22,12.34A78.17,78.17,0,0,0,174,172.68a79.87,79.87,0,0,0-4.35,27.17,42.58,42.58,0,0,0,1.15,10.23,33.1,33.1,0,0,0,3.07,8.06,17.77,17.77,0,0,0,4.53,5.5,10.55,10.55,0,0,0,5.69,2.3,20.19,20.19,0,0,0,8.17-4.15,43.92,43.92,0,0,0,7.48-7.67,50.81,50.81,0,0,0,5.74-9.45,30.8,30.8,0,0,0,2.88-9.65l-6.84,1.45a29.85,29.85,0,0,1-6.19.69,11.87,11.87,0,0,1-6.71-1.91,9.46,9.46,0,0,1-3.89-5.24,37.76,37.76,0,0,1,6.7-2.7q4.41-1.41,9.39-2.64c3.32-.82,6.58-1.48,9.77-2A52.09,52.09,0,0,1,218.4,181.9Z"/><path id="logo__b" class="cls-1" d="M318.68,152.14a24,24,0,0,1-4.35,14.11,33.91,33.91,0,0,1-11.88,10.29,25.84,25.84,0,0,1,7.73,8.11,20,20,0,0,1,2.88,10.54,25.59,25.59,0,0,1-4.16,13.6,43.33,43.33,0,0,1-11,11.88A59.92,59.92,0,0,1,282.14,229a52.44,52.44,0,0,1-18,3.19,38.32,38.32,0,0,1-17.44-3.77A28.29,28.29,0,0,1,235,217.8q1.28-3.84,3.38-9.52t4.66-12q2.56-6.32,5.18-12.58t4.91-11.24q4.86-10.86,8.69-18a88.69,88.69,0,0,1,7-11.37A93.4,93.4,0,0,0,256.08,148a33.16,33.16,0,0,0-8.43,5.3,10.93,10.93,0,0,1-2.36-2.3,28.27,28.27,0,0,1-2.3-3.39,22.7,22.7,0,0,1-1.79-3.77,13,13,0,0,1-.83-3.45A43.42,43.42,0,0,1,249,136a87.27,87.27,0,0,1,11.56-3.64,122.92,122.92,0,0,1,12.84-2.43A92.9,92.9,0,0,1,286,129q15.33,0,24,6.13A19.65,19.65,0,0,1,318.68,152.14ZM270,182.67a14.1,14.1,0,0,1-4.47-3.45Q262.6,185.73,260,192t-4.66,11.63q-2.06,5.35-3.32,9.32a27.27,27.27,0,0,0-1.41,5.75,14.44,14.44,0,0,0,4.28,1.53,31.52,31.52,0,0,0,6.19.51,56.32,56.32,0,0,0,16.61-2.42,50,50,0,0,0,13.92-6.58,35.75,35.75,0,0,0,9.59-9.52A20,20,0,0,0,304.75,191q0-8.43-7.28-12.13A58.86,58.86,0,0,1,275,182.92h-2.75A11.49,11.49,0,0,1,270,182.67Zm24.78-44.33a54.7,54.7,0,0,0-5.69.32q-3,.32-6.32,1a4.87,4.87,0,0,1,.83,1.08c.21.39.4.79.58,1.22a41.31,41.31,0,0,0-2.81,4.47q-1.67,2.94-3.71,6.83t-4.28,8.63q-2.24,4.72-4.53,9.7a43.49,43.49,0,0,1,5.3-.83,61.71,61.71,0,0,1,6.19-.32c1.11,0,2.2,0,3.26.13s2.11.22,3.13.39a53.34,53.34,0,0,0,11.05-3,38.91,38.91,0,0,0,8.5-4.6,20.12,20.12,0,0,0,5.49-5.81,12.91,12.91,0,0,0,1.91-6.77,10.3,10.3,0,0,0-4.85-9.26Q304,138.33,294.79,138.34Z"/></g><g id="logo__valley"><path id="logo__v" class="cls-2" d="M179.35,280.41a28.47,28.47,0,0,1,.32-4.34,8.28,8.28,0,0,1,1.34-3.51,6.82,6.82,0,0,1,2.81-2.3,11.4,11.4,0,0,1,4.73-.83,24.58,24.58,0,0,1,4,.38,6,6,0,0,1,3.26,1.41c-.34,1.45-.62,2.72-.83,3.83s-.38,2.32-.51,3.64-.24,2.9-.32,4.73-.17,4.19-.26,7.09q-.25,8.69-.83,15.52a66.08,66.08,0,0,1-2.61,13.6c0,.34.12.51.38.51a29.93,29.93,0,0,0,4.34-4.09c1.62-1.78,3.32-3.81,5.11-6.06s3.58-4.67,5.37-7.22,3.45-5.07,5-7.54q3.06-5.36,6.77-13.41a105.68,105.68,0,0,0,6.13-17.25,8.31,8.31,0,0,1,2,.32c.81.22,1.62.47,2.43.77a17.8,17.8,0,0,1,2.17,1,6,6,0,0,1,1.34.89,33.43,33.43,0,0,1-2.62,11.24,76.63,76.63,0,0,1-5.68,11.12,113.29,113.29,0,0,1-7,10.09q-3.7,4.73-6.77,8.17A142.64,142.64,0,0,1,197,320.91a98.79,98.79,0,0,1-14.75,10.86,13.49,13.49,0,0,1-5.24-3.39,6.47,6.47,0,0,1-1.91-4.41,10.62,10.62,0,0,1,.7-3.51q.71-2,1.6-5.11A64.26,64.26,0,0,0,179,307.5a84.11,84.11,0,0,0,.7-12q0-4.22-.19-8.5C179.42,284.14,179.35,282,179.35,280.41Z"/><path id="logo__a" class="cls-2" d="M273.63,274a12.55,12.55,0,0,1,3,.44,16.68,16.68,0,0,1,3.13,1.15,13.74,13.74,0,0,1,2.36,1.47q1,.77,1,1.41-2.56,5.36-4.73,10.79t-3.7,10.41a90.12,90.12,0,0,0-2.37,9.33,41.29,41.29,0,0,0-.83,7.54,19.6,19.6,0,0,0,.77,5.94,5.73,5.73,0,0,0,2.55,3.38,13.29,13.29,0,0,1-4,1.66,17,17,0,0,1-4.34.64q-6.9,0-6.9-9.45,0-7.29,4.86-19.93a78.39,78.39,0,0,1-5.88,11,77.15,77.15,0,0,1-6.77,9.1,40,40,0,0,1-7,6.42,16.43,16.43,0,0,1-6.45,3,9,9,0,0,1-7.67-4.3q-2.94-4.29-2.93-11a42.12,42.12,0,0,1,3.06-15.13,68.18,68.18,0,0,1,7.86-14.76,55.88,55.88,0,0,1,10.41-11.35q5.61-4.55,10.86-4.55a9.89,9.89,0,0,1,2.87,1.53,22.23,22.23,0,0,1,3.07,2.67,20.5,20.5,0,0,1,2.49,3.12,6.91,6.91,0,0,1,1.15,2.74,23.19,23.19,0,0,0-10.54,5,52.14,52.14,0,0,0-9.84,10.14A59,59,0,0,0,242,305.11a32.81,32.81,0,0,0-2.81,12.61c0,1.62.59,2.64,1.78,3.06q3.71-.76,8.56-6.32t11.75-17.18q1.27-2.31,2.88-5.11t3.26-5.88c1.1-2,2.19-4.11,3.25-6.19S272.69,276,273.63,274Z"/><path id="logo__l1" class="cls-2" d="M289.46,317.46q0-5.62,2.69-15.78T299.68,278q7.92-21.58,14.88-36t13.61-22.42a15.78,15.78,0,0,1,3.77,1.28q2.24,1,4.4,2.23a36.55,36.55,0,0,1,3.9,2.49,10.25,10.25,0,0,1,2.24,2A156.21,156.21,0,0,0,325,253a206.9,206.9,0,0,0-13.8,31A254.23,254.23,0,0,0,303,311.14a92,92,0,0,0-2.81,20.12v2.68a4.46,4.46,0,0,0,.13,1,10.13,10.13,0,0,1-3.06-.89,3.3,3.3,0,0,1-1.67-1.54,7.08,7.08,0,0,0-1.4-1.85,14.91,14.91,0,0,0-2-1.85q-1.15-.76-1.92-4A32.27,32.27,0,0,1,289.46,317.46Z"/><path id="logo__l2" class="cls-2" d="M319.61,317.46q0-5.62,2.68-15.78T329.83,278q7.92-21.58,14.88-36t13.6-22.42a15.63,15.63,0,0,1,3.77,1.28q2.24,1,4.41,2.23a36.55,36.55,0,0,1,3.9,2.49,10.14,10.14,0,0,1,2.23,2A157.48,157.48,0,0,0,355.12,253a207.93,207.93,0,0,0-13.79,31,251.93,251.93,0,0,0-8.18,27.15,92,92,0,0,0-2.81,20.12v2.68a4,4,0,0,0,.13,1,10.11,10.11,0,0,1-3.07-.89,3.31,3.31,0,0,1-1.66-1.54,7.32,7.32,0,0,0-1.4-1.85,14.34,14.34,0,0,0-2-1.85c-.76-.51-1.4-1.85-1.91-4A31.72,31.72,0,0,1,319.61,317.46Z"/><path id="logo__e" class="cls-2" d="M395.62,272.75a43.84,43.84,0,0,1-2.82,13.6,29.55,29.55,0,0,1-6.57,10,47.92,47.92,0,0,1-10.42,7.73,113.11,113.11,0,0,1-14.3,6.64c0,.51,0,1-.07,1.6s-.06,1.13-.06,1.72a23,23,0,0,0,.26,3.45,13,13,0,0,0,.89,3.32,6.39,6.39,0,0,0,1.79,2.49,4.43,4.43,0,0,0,2.94,1A16,16,0,0,0,374,322.7a35.41,35.41,0,0,0,6.32-3.77,51.16,51.16,0,0,0,5.62-4.86q2.63-2.61,4.66-4.79a24.61,24.61,0,0,1,2.17,2.18,61.44,61.44,0,0,1-12.58,12.71,35.85,35.85,0,0,1-13,6.45q-8.82-1-13.74-6.45a18.82,18.82,0,0,1-4.91-13.1,40.25,40.25,0,0,1,1.47-10.66,52.31,52.31,0,0,1,4.08-10.48,61.5,61.5,0,0,1,6.13-9.52,51.29,51.29,0,0,1,7.54-7.79,36.35,36.35,0,0,1,8.3-5.23,20.67,20.67,0,0,1,8.5-1.92Q390.51,266.24,395.62,272.75ZM386.8,277a18.79,18.79,0,0,0-7.15,2.81,29.66,29.66,0,0,0-7,6.13,47.56,47.56,0,0,0-5.94,8.94,51.4,51.4,0,0,0-4.22,11,57.09,57.09,0,0,0,17-12.59Q386.29,285.78,386.8,277Z"/><path id="logo__y" class="cls-2" d="M449.52,305.84q-2.94,9.32-5.87,17a141.74,141.74,0,0,1-6.26,14.12,99.94,99.94,0,0,1-7.16,11.88,90.84,90.84,0,0,1-8.43,10.28,47.14,47.14,0,0,1-12.13,9.39,27,27,0,0,1-12.52,3.26,29.37,29.37,0,0,1-6.33-.7,31.78,31.78,0,0,1-5.87-1.92,24.19,24.19,0,0,1-4.86-2.81,10,10,0,0,1-3-3.38,3.25,3.25,0,0,1,1.79-2.69c1,.94,1.87,1.66,2.55,2.18a16.65,16.65,0,0,0,2,1.27,5.7,5.7,0,0,0,2,.64,20.38,20.38,0,0,0,2.49.13,26.92,26.92,0,0,0,14.24-4.28,51.08,51.08,0,0,0,13.16-12.14,93.25,93.25,0,0,0,11.31-19,151.86,151.86,0,0,0,8.68-25q-1.66,2.55-4.09,6.24a89.82,89.82,0,0,1-5.36,7.33,65.33,65.33,0,0,1-6.07,6.56,17.66,17.66,0,0,1-6.07,3.95,14.25,14.25,0,0,1-4.28-.71,17.44,17.44,0,0,1-4.21-2,16.16,16.16,0,0,1-3.51-3.09,9.29,9.29,0,0,1-2.05-4.11,54.61,54.61,0,0,1,.26-5.94,41.09,41.09,0,0,1,.89-4.92,100.42,100.42,0,0,1,3.39-11,109.17,109.17,0,0,1,5.23-12.07,88.69,88.69,0,0,1,6.65-11.11,35,35,0,0,1,7.6-8.11,20.68,20.68,0,0,1,2.55.19,18.3,18.3,0,0,1,3.2.7,27.63,27.63,0,0,1,3.19,1.21,9.06,9.06,0,0,1,2.68,1.86q-1.41,1.27-6.13,8.55t-10.47,20.95c-.43.94-.94,2.3-1.54,4.09s-1.17,3.66-1.72,5.62-1.05,3.88-1.47,5.75a21.22,21.22,0,0,0-.64,4.47,2.93,2.93,0,0,0,.32,1.53,4,4,0,0,0,.57.77c1.54-.25,3.58-1.51,6.14-3.77a56.92,56.92,0,0,0,8.68-10.54q3.07-4.59,5.62-9.13t5.05-9.13q2.49-4.6,5.17-9.46t5.75-10a18.74,18.74,0,0,1,3.58.38,35.12,35.12,0,0,1,3.7,1,19.34,19.34,0,0,1,3.13,1.28,6.48,6.48,0,0,1,2,1.47q-4,8.43-7.41,16.48T449.52,305.84Z"/></g></g><g id="logo__frame-2" data-name="logo__frame"><g id="logo__bwCorners"><g id="logo__bwCorner2"><path d="M473.1,245.46a6.23,6.23,0,0,1-1.36-.15,6,6,0,0,1-4.5-7.2l14.77-64a5.38,5.38,0,0,0-4-6.44L414,153a6,6,0,0,1,1.35-11.85,5.6,5.6,0,0,1,1.35.16l75.52,17.43a5.51,5.51,0,0,1,4.12,6.6l-17.44,75.51a6,6,0,0,1-5.83,4.65Z"/><path class="cls-3" d="M415.38,142.61a4.44,4.44,0,0,1,1,.12l67.71,15.63,7.8,1.8a4,4,0,0,1,3,4.8l-1.8,7.79-15.64,67.72A4.46,4.46,0,0,1,473.1,244a4.38,4.38,0,0,1-1-.12,4.5,4.5,0,0,1-3.38-5.39l14.77-64a6.87,6.87,0,0,0-5.14-8.23l-64-14.76a4.5,4.5,0,0,1,1-8.89m0-3a7.5,7.5,0,0,0-1.68,14.81l63.95,14.77a3.86,3.86,0,0,1,2.9,4.63l-14.77,64a7.51,7.51,0,0,0,5.62,9,7.64,7.64,0,0,0,1.7.19,7.5,7.5,0,0,0,7.3-5.81L496,173.43l1.8-7.8a7,7,0,0,0-5.25-8.39l-7.79-1.8L417.07,139.8a7.55,7.55,0,0,0-1.69-.19Z"/></g><g id="logo__bwCorner1"><path d="M84.62,358.89a5.6,5.6,0,0,1-1.35-.16L7.75,341.3a5.51,5.51,0,0,1-4.12-6.6l17.44-75.51a6,6,0,0,1,5.84-4.65,6.21,6.21,0,0,1,1.35.15,6,6,0,0,1,4.5,7.2L18,325.84a5.39,5.39,0,0,0,4,6.44L86,347a6,6,0,0,1-1.35,11.85Z"/><path class="cls-3" d="M26.9,256a4.38,4.38,0,0,1,1,.12,4.5,4.5,0,0,1,3.38,5.39l-14.77,64a6.87,6.87,0,0,0,5.14,8.23l64,14.76a4.5,4.5,0,1,1-2,8.77L15.89,341.64l-7.8-1.8a4,4,0,0,1-3-4.8l1.8-7.79,15.64-67.72A4.46,4.46,0,0,1,26.9,256m0-3a7.5,7.5,0,0,0-7.3,5.81L4,326.57l-1.8,7.8a7,7,0,0,0,5.25,8.39l7.79,1.8L82.93,360.2a7.5,7.5,0,0,0,3.37-14.62L22.35,330.81a3.86,3.86,0,0,1-2.9-4.63l14.77-63.95a7.51,7.51,0,0,0-5.62-9,7.64,7.64,0,0,0-1.7-.19Z"/></g></g><g id="logo__bwCorner2-2" data-name="logo__bwCorner2"><path class="cls-3" d="M429,438.4a5.19,5.19,0,0,1-1.24-.15l-75.52-17.43A6,6,0,0,1,353.54,409a5.6,5.6,0,0,1,1.35.16l64,14.76a5.41,5.41,0,0,0,1.21.14,5.34,5.34,0,0,0,5.22-4.16L440,355.92a6,6,0,0,1,5.84-4.65,6.23,6.23,0,0,1,1.36.15,6,6,0,0,1,4.5,7.2L434.3,434.13A5.48,5.48,0,0,1,429,438.4Z"/><path d="M445.88,352.77h0a5,5,0,0,1,1,.11,4.5,4.5,0,0,1,3.38,5.4L434.64,426l-1.8,7.79A4,4,0,0,1,429,436.9a4,4,0,0,1-.91-.11l-7.79-1.8-67.72-15.63a4.5,4.5,0,1,1,2-8.77l63.95,14.76a6.84,6.84,0,0,0,8.23-5.14l14.77-63.95a4.46,4.46,0,0,1,4.37-3.49m0-3a7.5,7.5,0,0,0-7.3,5.81l-14.76,64a3.87,3.87,0,0,1-4.64,2.89l-63.95-14.76a7.46,7.46,0,0,0-9,5.62,7.49,7.49,0,0,0,5.62,9l67.71,15.64,7.8,1.8a7.16,7.16,0,0,0,1.58.18,7,7,0,0,0,6.81-5.43l1.8-7.8L453.2,359a7.51,7.51,0,0,0-5.62-9,7.64,7.64,0,0,0-1.7-.19Z"/></g><g id="logo__bwCorner1-2" data-name="logo__bwCorner1"><path class="cls-3" d="M54.12,148.73a6.23,6.23,0,0,1-1.36-.15,6,6,0,0,1-4.5-7.2L65.7,65.87a5.48,5.48,0,0,1,5.35-4.27,5.26,5.26,0,0,1,1.24.15l75.52,17.43A6,6,0,0,1,146.47,91a6.24,6.24,0,0,1-1.36-.16l-64-14.76A4.88,4.88,0,0,0,79.94,76a5.34,5.34,0,0,0-5.22,4.16L60,144.08A6,6,0,0,1,54.12,148.73Z"/><path d="M71.05,63.1a4,4,0,0,1,.91.11L79.75,65l67.72,15.63a4.5,4.5,0,1,1-2,8.77L81.49,74.65a6.84,6.84,0,0,0-8.23,5.14l-14.77,64a4.46,4.46,0,0,1-4.37,3.49,5,5,0,0,1-1-.11,4.5,4.5,0,0,1-3.38-5.4L65.36,74l1.8-7.79a4,4,0,0,1,3.89-3.11m0-3a7,7,0,0,0-6.81,5.43l-1.8,7.8L46.8,141a7.51,7.51,0,0,0,5.62,9h0a7.64,7.64,0,0,0,1.7.19,7.5,7.5,0,0,0,7.3-5.81l14.76-64a3.87,3.87,0,0,1,4.64-2.89l64,14.76a7.46,7.46,0,0,0,9-5.62,7.49,7.49,0,0,0-5.62-9L80.43,62.08l-7.8-1.8a7.16,7.16,0,0,0-1.58-.18Z"/></g></g></g></svg>